<svg width="191" height="33" viewBox="0 0 191 33" fill="none" xmlns="http://www.w3.org/2000/svg">
<path d="M4.216 26.784C3.55467 26.784 2.92533 26.688 2.328 26.496C1.73067 26.3253 1.21867 25.9413 0.792 25.344C1.00533 24.32 1.26133 23.2213 1.56 22.048C1.88 20.8533 2.22133 19.6373 2.584 18.4C2.94667 17.1413 3.30933 15.9147 3.672 14.72C4.056 13.504 4.41867 12.3733 4.76 11.328C5.10133 10.2827 5.41067 9.36533 5.688 8.576C5.96533 7.78667 6.17867 7.18933 6.328 6.784C6.392 6.61333 6.49867 6.368 6.648 6.048C6.79733 5.70667 6.97867 5.36533 7.192 5.024C7.40533 4.68267 7.65067 4.39467 7.928 4.16C8.20533 3.904 8.504 3.776 8.824 3.776C9.12267 3.776 9.42133 3.88267 9.72 4.096C9.05867 5.632 8.38667 7.328 7.704 9.184C7.04267 11.04 6.40267 12.96 5.784 14.944C5.16533 16.9067 4.6 18.8267 4.088 20.704C3.576 22.5813 3.14933 24.288 2.808 25.824C3.10667 25.8667 3.352 25.8987 3.544 25.92C3.75733 25.9413 3.97067 25.952 4.184 25.952C5.54933 25.952 6.86133 25.632 8.12 24.992C9.4 24.3733 10.584 23.52 11.672 22.432C12.7813 21.3227 13.752 20.064 14.584 18.656C15.416 17.2267 16.056 15.7227 16.504 14.144C16.9733 12.544 17.208 10.9547 17.208 9.376C17.208 7.648 16.9307 6.22933 16.376 5.12C15.8213 3.98933 15.0533 3.15733 14.072 2.624C13.0907 2.09067 11.9493 1.824 10.648 1.824C9.26133 1.824 8.01333 2.10133 6.904 2.656C5.79467 3.21067 4.92 3.95733 4.28 4.896C3.64 5.83467 3.32 6.89067 3.32 8.064C3.32 8.32 3.33067 8.544 3.352 8.736C3.39467 8.928 3.43733 9.09867 3.48 9.248C2.776 9.248 2.27467 9.07733 1.976 8.736C1.69867 8.37333 1.56 7.94667 1.56 7.456C1.56 6.70933 1.816 5.96267 2.328 5.216C2.86133 4.448 3.58667 3.744 4.504 3.104C5.44267 2.464 6.52 1.952 7.736 1.568C8.952 1.16267 10.2427 0.959999 11.608 0.959999C13.528 0.959999 15.064 1.35467 16.216 2.144C17.3893 2.912 18.2427 3.95733 18.776 5.28C19.3093 6.60267 19.576 8.08533 19.576 9.728C19.576 11.584 19.288 13.3653 18.712 15.072C18.136 16.7573 17.336 18.3147 16.312 19.744C15.3093 21.152 14.1573 22.3893 12.856 23.456C11.5547 24.5013 10.1573 25.312 8.664 25.888C7.192 26.4853 5.70933 26.784 4.216 26.784ZM36.0343 24.992C35.2876 24.992 34.7436 24.7573 34.4023 24.288C34.0609 23.84 33.8903 23.296 33.8903 22.656C33.8903 22.1227 33.9649 21.5893 34.1143 21.056C34.2849 20.5227 34.4449 20 34.5943 19.488C34.7649 18.976 34.8503 18.5173 34.8503 18.112C34.8503 17.6853 34.7543 17.3867 34.5623 17.216C34.3703 17.0453 34.1569 16.96 33.9223 16.96C33.3889 16.96 32.8023 17.376 32.1623 18.208C31.5436 19.04 30.7329 20.2133 29.7303 21.728C29.3889 22.24 29.1009 22.7627 28.8663 23.296C28.6316 23.808 28.4076 24.2773 28.1943 24.704C28.0236 24.704 27.8103 24.6827 27.5543 24.64C27.2983 24.5973 27.0636 24.5227 26.8503 24.416C26.6583 24.3307 26.5623 24.2133 26.5623 24.064C26.5623 23.9147 26.6583 23.5627 26.8503 23.008C27.0636 22.432 27.2983 21.7707 27.5543 21.024C27.8316 20.256 28.0663 19.488 28.2583 18.72C28.4716 17.9307 28.5783 17.2587 28.5783 16.704C28.5783 16.3413 28.5143 16.0533 28.3863 15.84C28.2796 15.6053 28.0769 15.488 27.7783 15.488C27.3089 15.488 26.7436 15.776 26.0823 16.352C25.4209 16.9067 24.7383 17.6427 24.0343 18.56C23.3303 19.4773 22.6583 20.4907 22.0182 21.6C21.3996 22.688 20.8983 23.776 20.5143 24.864C20.3223 24.864 20.0876 24.832 19.8102 24.768C19.5329 24.704 19.2982 24.6187 19.1062 24.512C18.8929 24.4053 18.7862 24.2987 18.7862 24.192C18.7862 24.064 18.9036 23.6907 19.1382 23.072C19.3516 22.432 19.6076 21.6747 19.9062 20.8C20.1836 19.904 20.4289 18.9973 20.6423 18.08C20.8769 17.1627 20.9943 16.352 20.9943 15.648C21.1223 15.4987 21.3249 15.3493 21.6023 15.2C21.8796 15.0507 22.1676 14.976 22.4663 14.976C22.7649 14.976 22.9783 15.0507 23.1063 15.2C23.2556 15.3493 23.3303 15.552 23.3303 15.808C23.3303 16.0853 23.2449 16.5653 23.0743 17.248C22.9249 17.9093 22.7329 18.6453 22.4983 19.456C22.9249 18.7733 23.4049 18.08 23.9383 17.376C24.4929 16.6507 25.0689 15.9893 25.6663 15.392C26.2636 14.7947 26.8609 14.3147 27.4583 13.952C28.0769 13.568 28.6743 13.376 29.2503 13.376C29.9116 13.376 30.3596 13.6213 30.5943 14.112C30.8503 14.5813 30.9783 15.1467 30.9783 15.808C30.9783 16.3413 30.9143 16.9067 30.7863 17.504C30.6796 18.08 30.5516 18.624 30.4023 19.136C30.2529 19.6267 30.1143 20.0213 29.9863 20.32C30.4343 19.5093 30.9249 18.7307 31.4583 17.984C32.0129 17.216 32.6103 16.5973 33.2503 16.128C33.8903 15.6373 34.5729 15.392 35.2983 15.392C35.9809 15.392 36.4503 15.5947 36.7063 16C36.9836 16.4053 37.1223 16.8853 37.1223 17.44C37.1223 17.9947 37.0263 18.6027 36.8343 19.264C36.6423 19.9253 36.4396 20.5653 36.2263 21.184C36.0343 21.8027 35.9383 22.336 35.9383 22.784C35.9383 23.0613 36.0023 23.3173 36.1303 23.552C36.2796 23.7653 36.5356 23.872 36.8983 23.872C37.4956 23.872 38.0503 23.6053 38.5623 23.072C39.0956 22.5173 39.5863 21.856 40.0343 21.088C40.4823 20.2987 40.8663 19.5413 41.1863 18.816L41.5703 19.264C41.2289 20.16 40.7916 21.056 40.2583 21.952C39.7249 22.8267 39.0956 23.552 38.3703 24.128C37.6663 24.704 36.8876 24.992 36.0343 24.992ZM41.9698 32.96C41.4364 32.96 40.9671 32.8107 40.5617 32.512C40.1564 32.2347 39.9537 31.8187 39.9537 31.264C39.9537 30.5813 40.1244 29.9733 40.4657 29.44C40.8071 28.9067 41.2658 28.416 41.8418 27.968C42.4178 27.52 43.0791 27.0933 43.8258 26.688C44.5724 26.2827 45.3511 25.8773 46.1618 25.472C46.4604 24.6827 46.7591 23.808 47.0578 22.848C47.3778 21.8667 47.6764 20.7893 47.9538 19.616C47.2711 20.7253 46.5351 21.6853 45.7458 22.496C44.9778 23.2853 44.1564 23.68 43.2818 23.68C42.8764 23.68 42.4711 23.5947 42.0658 23.424C41.6818 23.232 41.3618 22.944 41.1058 22.56C40.8498 22.176 40.7218 21.6853 40.7218 21.088C40.7218 20.4907 40.8178 19.7973 41.0098 19.008C41.2231 18.2187 41.4791 17.4507 41.7778 16.704C42.0764 15.9573 42.3858 15.3387 42.7057 14.848C43.0258 14.3573 43.3031 14.112 43.5378 14.112C43.6231 14.112 43.7724 14.144 43.9858 14.208C44.2204 14.272 44.4338 14.368 44.6258 14.496C44.8391 14.6027 44.9458 14.72 44.9458 14.848C44.7538 15.1253 44.5404 15.52 44.3058 16.032C44.0711 16.544 43.8364 17.12 43.6018 17.76C43.3884 18.3787 43.2071 18.9867 43.0578 19.584C42.9084 20.1813 42.8338 20.6933 42.8338 21.12C42.8338 21.504 42.9191 21.8133 43.0898 22.048C43.2604 22.2827 43.5591 22.4 43.9858 22.4C44.3911 22.4 44.8391 22.208 45.3298 21.824C45.8418 21.4187 46.3431 20.9067 46.8338 20.288C47.3458 19.6693 47.8151 19.008 48.2418 18.304C48.3058 18.0693 48.3591 17.8347 48.4018 17.6C48.4658 17.344 48.5191 17.088 48.5618 16.832C48.6258 16.5333 48.7751 16.192 49.0098 15.808C49.2658 15.4027 49.6604 15.2 50.1938 15.2C50.3004 15.2 50.4071 15.2107 50.5138 15.232C50.6204 15.232 50.7378 15.2533 50.8658 15.296C50.8658 15.6373 50.7591 16.2773 50.5458 17.216C50.3538 18.1333 50.0658 19.2107 49.6818 20.448C49.3191 21.6853 48.8818 22.9547 48.3698 24.256C49.3724 23.872 50.3538 23.2427 51.3138 22.368C52.2738 21.472 53.0524 20.288 53.6498 18.816L54.0658 19.136C53.7458 20.16 53.2551 21.056 52.5938 21.824C51.9538 22.5707 51.2284 23.2213 50.4178 23.776C49.6071 24.3093 48.8071 24.7573 48.0178 25.12C47.4631 26.4853 46.8551 27.7653 46.1938 28.96C45.5538 30.1547 44.8711 31.1147 44.1458 31.84C43.4418 32.5867 42.7164 32.96 41.9698 32.96ZM41.8098 31.936C42.1298 31.936 42.6631 31.5093 43.4098 30.656C44.1778 29.824 44.9884 28.352 45.8418 26.24C44.9671 26.7093 44.1564 27.168 43.4098 27.616C42.6631 28.0853 42.0658 28.5867 41.6178 29.12C41.1698 29.6533 40.9458 30.272 40.9458 30.976C40.9458 31.1467 41.0098 31.3493 41.1378 31.584C41.2658 31.8187 41.4898 31.936 41.8098 31.936ZM55.7513 25.472C54.8339 25.472 54.1299 25.2053 53.6393 24.672C53.1486 24.1387 52.9032 23.3493 52.9032 22.304C52.9032 21.3653 53.0739 20.2133 53.4153 18.848C53.7779 17.4613 54.2259 16.0427 54.7593 14.592C54.5459 14.5493 54.3433 14.5173 54.1513 14.496C53.9593 14.4533 53.7779 14.4 53.6073 14.336V13.76C53.7779 13.7813 53.9806 13.8027 54.2153 13.824C54.4499 13.8453 54.7166 13.8667 55.0153 13.888C55.4633 12.736 55.9433 11.6267 56.4553 10.56C56.9673 9.472 57.4686 8.512 57.9593 7.68C58.4713 6.82667 58.9513 6.15467 59.3993 5.664C59.8686 5.152 60.2633 4.896 60.5833 4.896C60.7539 4.896 60.9033 4.96 61.0312 5.088C61.1806 5.19467 61.2552 5.36533 61.2552 5.6C61.2552 5.96267 61.0313 6.56 60.5833 7.392C60.1353 8.20267 59.5806 9.17333 58.9193 10.304C58.2579 11.4347 57.6179 12.6613 56.9993 13.984C57.1913 13.984 57.3833 13.984 57.5753 13.984C57.7886 13.984 57.9913 13.984 58.1833 13.984C58.8873 13.984 59.6233 13.9733 60.3913 13.952C61.1806 13.9307 61.9699 13.8773 62.7593 13.792V14.368C61.5859 14.496 60.5299 14.592 59.5913 14.656C58.6739 14.72 57.8526 14.752 57.1273 14.752C57.0419 14.752 56.9566 14.752 56.8713 14.752C56.8073 14.752 56.7326 14.752 56.6473 14.752C56.1566 15.8827 55.7406 17.0453 55.3993 18.24C55.0579 19.4347 54.8873 20.5973 54.8873 21.728C54.8873 22.6453 55.0259 23.3067 55.3033 23.712C55.5806 24.096 56.0393 24.288 56.6793 24.288C57.7886 24.288 58.8766 23.7973 59.9433 22.816C61.0099 21.8347 61.9486 20.5013 62.7593 18.816L63.1753 19.136C62.6633 20.3307 62.0126 21.408 61.2233 22.368C60.4553 23.328 59.6019 24.0853 58.6633 24.64C57.7246 25.1947 56.7539 25.472 55.7513 25.472ZM67.6923 24.832C66.9669 24.832 66.3909 24.64 65.9643 24.256C65.5589 23.872 65.3563 23.3707 65.3563 22.752C65.3563 22.112 65.5056 21.44 65.8043 20.736C66.1029 20.032 66.3909 19.3387 66.6683 18.656C66.9669 17.952 67.1163 17.3227 67.1163 16.768C67.1163 16.0853 66.9136 15.584 66.5083 15.264C66.1243 14.9227 65.7296 14.6133 65.3243 14.336C64.8336 15.5947 64.3216 16.7893 63.7883 17.92C63.2549 19.0507 62.8176 19.904 62.4763 20.48L62.1883 19.936C62.4869 19.3813 62.8709 18.5707 63.3403 17.504C63.8309 16.4373 64.3109 15.2213 64.7803 13.856C64.5669 13.6427 64.4603 13.3867 64.4603 13.088C64.4603 12.448 64.6416 11.9253 65.0043 11.52C65.3669 11.1147 65.6336 10.912 65.8043 10.912C66.0389 10.912 66.1669 11.0187 66.1883 11.232C66.2309 11.424 66.2523 11.5733 66.2523 11.68C66.2523 11.7867 66.1883 12 66.0603 12.32C65.9536 12.6187 65.9003 12.8 65.9003 12.864C65.9003 13.1627 66.0603 13.44 66.3802 13.696C66.7216 13.9307 67.1056 14.208 67.5323 14.528C67.9589 14.8267 68.3323 15.2 68.6523 15.648C68.9936 16.0747 69.1643 16.6293 69.1643 17.312C69.1643 17.952 69.0256 18.6027 68.7483 19.264C68.4923 19.9253 68.2256 20.5547 67.9483 21.152C67.6923 21.7493 67.5643 22.272 67.5643 22.72C67.5643 23.104 67.6603 23.36 67.8523 23.488C68.0443 23.616 68.2683 23.68 68.5243 23.68C69.0363 23.68 69.5589 23.52 70.0923 23.2C70.6469 22.88 71.1803 22.4747 71.6923 21.984C72.2043 21.4933 72.6629 20.9813 73.0683 20.448C73.4736 19.8933 73.7723 19.3813 73.9643 18.912L74.3803 19.232C73.9749 20.128 73.4203 21.0133 72.7163 21.888C72.0123 22.7413 71.2229 23.4453 70.3483 24C69.4949 24.5547 68.6096 24.832 67.6923 24.832ZM75.4893 25.024C74.5719 25.024 73.9213 24.736 73.5373 24.16C73.1532 23.6053 72.9612 22.9227 72.9612 22.112C72.9612 21.4507 73.0679 20.768 73.2812 20.064C73.4946 19.36 73.7719 18.6987 74.1133 18.08C74.4759 17.4613 74.8706 16.96 75.2973 16.576C75.7453 16.192 76.1933 16 76.6413 16C76.7479 16 76.8546 16.0213 76.9613 16.064C77.0893 16.0853 77.2066 16.1173 77.3133 16.16C77.1213 16.3307 76.8866 16.6507 76.6093 17.12C76.3533 17.568 76.1079 18.0907 75.8733 18.688C75.6386 19.264 75.4359 19.84 75.2653 20.416C75.1159 20.992 75.0413 21.4827 75.0413 21.888C75.0413 22.528 75.1479 22.9973 75.3613 23.296C75.5746 23.5733 75.8519 23.712 76.1933 23.712C76.6413 23.712 77.1746 23.4773 77.7933 23.008C78.4119 22.5173 79.0199 21.8987 79.6173 21.152C79.0199 20.6613 78.5506 20.0213 78.2093 19.232C77.8893 18.4213 77.7293 17.6 77.7293 16.768C77.7293 16.064 77.8466 15.4027 78.0813 14.784C78.3373 14.1653 78.6999 13.6747 79.1693 13.312C79.6386 12.928 80.2039 12.736 80.8653 12.736C81.7399 12.736 82.3266 12.9707 82.6253 13.44C82.9239 13.9093 83.0733 14.496 83.0733 15.2C83.0733 16.032 82.8706 16.96 82.4653 17.984C82.0599 18.9867 81.5479 19.9573 80.9293 20.896C81.3133 21.1093 81.7186 21.216 82.1453 21.216C82.4866 21.216 82.8706 21.152 83.2973 21.024C83.7239 20.8747 84.1399 20.6293 84.5453 20.288C84.9719 19.9467 85.3133 19.488 85.5693 18.912L85.9533 19.232C85.5266 20.2347 84.9186 20.9493 84.1293 21.376C83.3613 21.7813 82.6253 21.984 81.9213 21.984C81.6439 21.984 81.3773 21.9627 81.1213 21.92C80.8653 21.856 80.6199 21.7707 80.3853 21.664C79.6599 22.624 78.8599 23.424 77.9852 24.064C77.1319 24.704 76.2999 25.024 75.4893 25.024ZM80.1933 20.32C80.7266 19.5307 81.1639 18.7093 81.5052 17.856C81.8679 16.9813 82.0493 16.16 82.0493 15.392C82.0493 14.7733 81.9533 14.3253 81.7613 14.048C81.5906 13.7493 81.3666 13.6 81.0893 13.6C80.6626 13.6 80.2253 13.9093 79.7773 14.528C79.3293 15.1467 79.1053 15.9253 79.1053 16.864C79.1053 17.4827 79.1906 18.112 79.3613 18.752C79.5533 19.3707 79.8306 19.8933 80.1933 20.32ZM99.7773 26.784C98.6253 26.784 97.5373 26.5707 96.5133 26.144C95.4893 25.7387 94.6573 25.1093 94.0173 24.256C93.3986 23.4027 93.0892 22.336 93.0892 21.056C93.0892 19.9467 93.3026 19.0827 93.7293 18.464C94.1773 17.8453 94.7213 17.408 95.3613 17.152C96.0013 16.896 96.6093 16.768 97.1853 16.768C96.6093 17.3867 96.1719 18.0693 95.8733 18.816C95.5746 19.5627 95.4253 20.3093 95.4253 21.056C95.4253 21.8453 95.5959 22.5813 95.9373 23.264C96.2999 23.9467 96.8439 24.4907 97.5693 24.896C98.2946 25.3227 99.2119 25.536 100.321 25.536C101.281 25.536 102.22 25.3547 103.137 24.992C104.055 24.6507 104.801 24.1387 105.377 23.456C105.975 22.752 106.273 21.888 106.273 20.864C106.273 19.9467 106.039 19.1573 105.569 18.496C105.1 17.8347 104.492 17.248 103.745 16.736C103.02 16.224 102.241 15.7333 101.409 15.264C100.577 14.7947 99.7879 14.304 99.0413 13.792C98.3159 13.2587 97.7186 12.6507 97.2493 11.968C96.7799 11.2853 96.5453 10.464 96.5453 9.504C96.5453 8.608 96.7586 7.66933 97.1853 6.688C97.6119 5.70667 98.2199 4.77867 99.0093 3.904C99.8199 3.02933 100.78 2.32533 101.889 1.792C103.02 1.23733 104.279 0.959999 105.665 0.959999C106.924 0.959999 107.799 1.26933 108.289 1.888C108.78 2.48533 109.025 3.24267 109.025 4.16C109.025 4.928 108.887 5.76 108.609 6.656C108.353 7.53067 108.033 8.37333 107.649 9.184C107.265 9.97333 106.903 10.6453 106.561 11.2C106.177 11.1147 105.9 10.9547 105.729 10.72C105.58 10.464 105.505 10.1653 105.505 9.824C105.505 9.376 105.601 8.864 105.793 8.288C105.985 7.712 106.199 7.11467 106.433 6.496C106.689 5.87733 106.913 5.28 107.105 4.704C107.297 4.10667 107.393 3.57333 107.393 3.104C107.393 2.67733 107.265 2.34667 107.009 2.112C106.753 1.856 106.284 1.728 105.601 1.728C104.599 1.728 103.671 1.96267 102.817 2.432C101.964 2.90133 101.217 3.50933 100.577 4.256C99.9373 4.98133 99.4359 5.74933 99.0733 6.56C98.7319 7.37067 98.5613 8.10667 98.5613 8.768C98.5613 9.55733 98.7853 10.24 99.2333 10.816C99.7026 11.3707 100.3 11.8827 101.025 12.352C101.751 12.8 102.519 13.2587 103.329 13.728C104.161 14.176 104.94 14.6773 105.665 15.232C106.391 15.7867 106.977 16.448 107.425 17.216C107.895 17.9627 108.129 18.88 108.129 19.968C108.129 21.0773 107.884 22.0587 107.393 22.912C106.903 23.744 106.241 24.448 105.409 25.024C104.599 25.6 103.703 26.0373 102.721 26.336C101.74 26.6347 100.759 26.784 99.7773 26.784ZM111.942 25.216C111.536 25.216 111.216 24.8747 110.982 24.192C110.747 23.5093 110.63 22.7413 110.63 21.888C110.63 20.864 110.8 19.648 111.142 18.24C111.483 16.832 111.931 15.3493 112.486 13.792C113.04 12.2347 113.659 10.7093 114.342 9.216C115.046 7.72267 115.76 6.368 116.486 5.152C117.211 3.936 117.894 2.96533 118.534 2.24C119.174 1.51467 119.728 1.152 120.198 1.152C120.582 1.152 120.848 1.38667 120.998 1.856C121.168 2.304 121.254 2.74133 121.254 3.168C121.254 3.76533 121.115 4.49067 120.838 5.344C120.582 6.19733 120.219 7.11467 119.75 8.096C119.28 9.056 118.736 10.0053 118.118 10.944C117.499 11.8827 116.827 12.7467 116.102 13.536C115.376 14.304 114.64 14.912 113.894 15.36C113.638 15.9787 113.414 16.672 113.222 17.44C113.051 18.208 112.923 18.9653 112.838 19.712C112.752 20.4373 112.71 21.088 112.71 21.664C112.71 21.8987 112.71 22.1013 112.71 22.272C112.731 22.4427 112.752 22.6027 112.774 22.752C113.072 21.8773 113.392 21.0347 113.734 20.224C114.096 19.392 114.48 18.6347 114.886 17.952C115.291 17.248 115.718 16.64 116.166 16.128C116.635 15.5947 117.126 15.1893 117.638 14.912C118.15 14.6133 118.694 14.464 119.27 14.464C119.867 14.464 120.336 14.6133 120.678 14.912C121.04 15.1893 121.296 15.552 121.446 16C121.616 16.4267 121.702 16.8747 121.702 17.344C121.702 18.0053 121.584 18.6453 121.35 19.264C121.136 19.8827 120.912 20.48 120.678 21.056C120.443 21.632 120.326 22.1867 120.326 22.72C120.326 23.1467 120.411 23.456 120.582 23.648C120.774 23.84 121.008 23.936 121.286 23.936C121.776 23.936 122.32 23.7013 122.918 23.232C123.536 22.7627 124.144 22.144 124.742 21.376C125.339 20.5867 125.851 19.7333 126.278 18.816L126.694 19.2C126.246 20.2453 125.702 21.1947 125.062 22.048C124.422 22.88 123.718 23.5413 122.95 24.032C122.182 24.5227 121.382 24.768 120.55 24.768C119.824 24.768 119.27 24.576 118.885 24.192C118.523 23.808 118.342 23.328 118.342 22.752C118.342 22.304 118.427 21.8027 118.598 21.248C118.768 20.6933 118.928 20.128 119.078 19.552C119.248 18.976 119.334 18.432 119.334 17.92C119.334 17.3653 119.216 16.9707 118.982 16.736C118.747 16.5013 118.459 16.384 118.118 16.384C117.584 16.384 117.104 16.5973 116.678 17.024C116.251 17.4507 115.856 18.0053 115.494 18.688C115.152 19.3493 114.822 20.0533 114.502 20.8C114.203 21.5467 113.915 22.2613 113.638 22.944C113.36 23.6053 113.083 24.1493 112.806 24.576C112.528 25.0027 112.24 25.216 111.942 25.216ZM114.31 14.112C114.907 13.6427 115.483 13.0453 116.038 12.32C116.614 11.5947 117.147 10.8267 117.638 10.016C118.128 9.184 118.566 8.37333 118.95 7.584C119.334 6.79467 119.632 6.08 119.845 5.44C120.059 4.8 120.166 4.32 120.166 4C120.166 3.89333 120.155 3.82933 120.134 3.808C120.112 3.76533 120.08 3.744 120.038 3.744C119.888 3.744 119.579 4.04267 119.11 4.64C118.662 5.216 118.139 5.99467 117.542 6.976C116.944 7.95733 116.358 9.06667 115.782 10.304C115.206 11.5413 114.715 12.8107 114.31 14.112ZM135.16 25.216C134.563 25.216 134.051 25.0133 133.624 24.608C133.198 24.2027 132.856 23.6907 132.6 23.072C132.366 22.4533 132.184 21.824 132.056 21.184C131.95 20.5227 131.896 19.9467 131.896 19.456C132.131 19.456 132.472 19.4027 132.92 19.296C133.368 19.168 133.827 18.9867 134.296 18.752C134.766 18.496 135.16 18.176 135.48 17.792C135.822 17.3867 135.992 16.9173 135.992 16.384C135.992 15.936 135.832 15.584 135.512 15.328C135.192 15.072 134.819 14.944 134.392 14.944C133.731 14.944 133.112 15.1787 132.536 15.648C131.96 16.096 131.438 16.6933 130.968 17.44C130.52 18.1653 130.115 18.944 129.752 19.776C129.39 20.608 129.08 21.3973 128.824 22.144C128.568 22.8907 128.355 23.5093 128.184 24C128.056 24.384 127.875 24.64 127.64 24.768C127.406 24.9173 127.16 24.992 126.904 24.992C126.542 24.992 126.275 24.8427 126.104 24.544C125.955 24.2453 125.859 23.872 125.816 23.424C125.795 22.9547 125.784 22.4747 125.784 21.984C125.784 20.8747 125.966 19.5947 126.328 18.144C126.691 16.6933 127.171 15.1893 127.768 13.632C128.387 12.0533 129.059 10.528 129.784 9.056C130.51 7.584 131.235 6.25067 131.96 5.056C132.686 3.86133 133.358 2.912 133.976 2.208C134.595 1.504 135.096 1.152 135.48 1.152C135.779 1.152 136.014 1.35467 136.184 1.76C136.376 2.16533 136.472 2.656 136.472 3.232C136.472 3.95733 136.312 4.77867 135.992 5.696C135.672 6.592 135.214 7.49867 134.616 8.416C134.04 9.33333 133.347 10.1973 132.536 11.008C131.747 11.8187 130.883 12.512 129.944 13.088C129.24 14.816 128.707 16.5013 128.344 18.144C128.003 19.7653 127.832 21.1307 127.832 22.24C128.174 21.3867 128.579 20.448 129.048 19.424C129.539 18.4 130.094 17.4187 130.712 16.48C131.331 15.5413 132.003 14.7733 132.728 14.176C133.454 13.5787 134.211 13.28 135 13.28C135.79 13.28 136.462 13.5573 137.016 14.112C137.571 14.6667 137.848 15.3387 137.848 16.128C137.848 16.8107 137.667 17.3973 137.304 17.888C136.963 18.3573 136.536 18.7413 136.024 19.04C135.534 19.3173 135.032 19.5307 134.52 19.68C134.03 19.808 133.624 19.872 133.304 19.872C133.326 20.0427 133.39 20.352 133.496 20.8C133.603 21.248 133.752 21.7173 133.944 22.208C134.158 22.6987 134.414 23.1253 134.712 23.488C135.011 23.8293 135.374 24 135.8 24C136.419 24 137.006 23.7653 137.56 23.296C138.115 22.8267 138.638 22.208 139.128 21.44C139.64 20.6507 140.11 19.7653 140.536 18.784L140.856 19.104C140.558 20.1493 140.099 21.1413 139.48 22.08C138.862 22.9973 138.168 23.744 137.4 24.32C136.654 24.9173 135.907 25.216 135.16 25.216ZM130.488 11.808C131.47 11.0187 132.323 10.1227 133.048 9.12C133.795 8.11733 134.371 7.15733 134.776 6.24C135.182 5.30133 135.384 4.56533 135.384 4.032C135.384 3.92533 135.374 3.85067 135.352 3.808C135.352 3.76533 135.331 3.744 135.288 3.744C135.075 3.744 134.702 4.11733 134.168 4.864C133.656 5.61067 133.07 6.60267 132.408 7.84C131.747 9.056 131.107 10.3787 130.488 11.808ZM142.146 25.024C141.228 25.024 140.578 24.736 140.194 24.16C139.809 23.6053 139.617 22.9227 139.617 22.112C139.617 21.4507 139.724 20.768 139.938 20.064C140.151 19.36 140.428 18.6987 140.77 18.08C141.132 17.4613 141.527 16.96 141.954 16.576C142.402 16.192 142.85 16 143.298 16C143.404 16 143.511 16.0213 143.618 16.064C143.746 16.0853 143.863 16.1173 143.97 16.16C143.778 16.3307 143.543 16.6507 143.266 17.12C143.01 17.568 142.764 18.0907 142.53 18.688C142.295 19.264 142.092 19.84 141.922 20.416C141.772 20.992 141.698 21.4827 141.698 21.888C141.698 22.528 141.804 22.9973 142.018 23.296C142.231 23.5733 142.508 23.712 142.85 23.712C143.298 23.712 143.831 23.4773 144.45 23.008C145.068 22.5173 145.676 21.8987 146.274 21.152C145.676 20.6613 145.207 20.0213 144.866 19.232C144.546 18.4213 144.386 17.6 144.386 16.768C144.386 16.064 144.503 15.4027 144.738 14.784C144.994 14.1653 145.356 13.6747 145.826 13.312C146.295 12.928 146.86 12.736 147.522 12.736C148.396 12.736 148.983 12.9707 149.282 13.44C149.58 13.9093 149.73 14.496 149.73 15.2C149.73 16.032 149.527 16.96 149.122 17.984C148.716 18.9867 148.204 19.9573 147.586 20.896C147.97 21.1093 148.375 21.216 148.802 21.216C149.143 21.216 149.527 21.152 149.954 21.024C150.38 20.8747 150.796 20.6293 151.202 20.288C151.628 19.9467 151.97 19.488 152.226 18.912L152.61 19.232C152.183 20.2347 151.575 20.9493 150.786 21.376C150.018 21.7813 149.282 21.984 148.578 21.984C148.3 21.984 148.034 21.9627 147.778 21.92C147.522 21.856 147.276 21.7707 147.042 21.664C146.316 22.624 145.516 23.424 144.641 24.064C143.788 24.704 142.956 25.024 142.146 25.024ZM146.85 20.32C147.383 19.5307 147.82 18.7093 148.161 17.856C148.524 16.9813 148.706 16.16 148.706 15.392C148.706 14.7733 148.61 14.3253 148.418 14.048C148.247 13.7493 148.023 13.6 147.746 13.6C147.319 13.6 146.882 13.9093 146.434 14.528C145.986 15.1467 145.762 15.9253 145.762 16.864C145.762 17.4827 145.847 18.112 146.018 18.752C146.21 19.3707 146.487 19.8933 146.85 20.32ZM153.513 24.96C153.15 24.96 152.777 24.864 152.393 24.672C152.03 24.5013 151.732 24.2133 151.497 23.808C151.241 23.4027 151.113 22.8907 151.113 22.272C151.113 21.568 151.284 20.7787 151.625 19.904C151.966 19.0293 152.425 18.1653 153.001 17.312C153.577 16.4373 154.238 15.6373 154.985 14.912C155.732 14.1653 156.51 13.5787 157.321 13.152C158.132 12.704 158.932 12.48 159.721 12.48C160.169 12.48 160.51 12.5653 160.745 12.736C161.001 12.8853 161.129 13.1307 161.129 13.472C161.129 13.5573 161.118 13.632 161.097 13.696C161.097 13.76 161.086 13.8347 161.065 13.92C160.958 13.7493 160.798 13.632 160.585 13.568C160.393 13.4827 160.148 13.44 159.849 13.44C159.166 13.44 158.494 13.6533 157.833 14.08C157.193 14.4853 156.596 15.0293 156.041 15.712C155.508 16.3733 155.038 17.088 154.633 17.856C154.228 18.624 153.908 19.3707 153.673 20.096C153.46 20.8 153.353 21.3973 153.353 21.888C153.353 22.3573 153.46 22.7307 153.673 23.008C153.886 23.2853 154.164 23.424 154.505 23.424C155.081 23.424 155.774 23.0613 156.585 22.336C157.417 21.6107 158.26 20.5867 159.113 19.264C159.966 17.9413 160.734 16.3947 161.417 14.624C161.886 13.3867 162.366 12.128 162.857 10.848C163.369 9.568 163.881 8.34133 164.393 7.168C164.905 5.97333 165.396 4.91733 165.865 4C166.356 3.06133 166.814 2.32533 167.241 1.792C167.689 1.23733 168.084 0.959999 168.425 0.959999C168.596 0.959999 168.745 1.03467 168.873 1.184C169.001 1.312 169.065 1.48267 169.065 1.696C169.065 2.03733 168.884 2.624 168.521 3.456C168.18 4.26667 167.721 5.248 167.145 6.4C166.59 7.53067 166.004 8.768 165.385 10.112C164.766 11.456 164.169 12.8213 163.593 14.208C163.038 15.5947 162.58 16.9387 162.217 18.24C161.876 19.52 161.705 20.6933 161.705 21.76C161.705 22.3573 161.737 22.8053 161.801 23.104C161.865 23.4027 162.078 23.552 162.441 23.552C162.889 23.552 163.412 23.36 164.009 22.976C164.606 22.592 165.204 22.048 165.801 21.344C166.398 20.64 166.921 19.7973 167.369 18.816L167.753 19.104C167.348 20.192 166.793 21.1733 166.089 22.048C165.385 22.9013 164.628 23.5733 163.817 24.064C163.028 24.576 162.27 24.832 161.545 24.832C160.756 24.832 160.201 24.5653 159.881 24.032C159.582 23.52 159.433 22.9867 159.433 22.432C159.433 22.0693 159.486 21.5893 159.593 20.992C159.7 20.3947 159.849 19.7333 160.041 19.008C159.358 20.1387 158.633 21.1627 157.865 22.08C157.097 22.976 156.34 23.68 155.593 24.192C154.868 24.704 154.174 24.96 153.513 24.96ZM169.054 24.832C168.222 24.832 167.603 24.5653 167.198 24.032C166.793 23.52 166.59 22.8907 166.59 22.144C166.59 21.6533 166.675 21.0347 166.846 20.288C167.038 19.5413 167.283 18.7627 167.582 17.952C167.881 17.12 168.222 16.3413 168.606 15.616C169.011 14.8907 169.438 14.304 169.886 13.856C170.334 13.3867 170.771 13.152 171.198 13.152C171.39 13.152 171.55 13.216 171.678 13.344C171.827 13.4507 171.902 13.6213 171.902 13.856C171.902 14.112 171.731 14.528 171.39 15.104C171.07 15.68 170.686 16.3413 170.238 17.088C169.79 17.8347 169.395 18.624 169.054 19.456C168.734 20.2667 168.574 21.0453 168.574 21.792C168.574 22.56 168.702 23.072 168.958 23.328C169.214 23.584 169.609 23.712 170.142 23.712C170.867 23.712 171.635 23.3493 172.446 22.624C173.278 21.8987 174.153 20.6293 175.07 18.816L175.358 19.136C174.739 20.9707 173.843 22.3787 172.67 23.36C171.518 24.3413 170.313 24.832 169.054 24.832ZM172.894 10.176C172.553 10.176 172.243 10.0907 171.966 9.92C171.71 9.74933 171.582 9.48267 171.582 9.12C171.582 8.672 171.838 8.288 172.35 7.968C172.883 7.62667 173.406 7.456 173.918 7.456C174.238 7.456 174.494 7.53067 174.686 7.68C174.878 7.82933 174.974 8.08533 174.974 8.448C174.974 8.85333 174.75 9.248 174.302 9.632C173.875 9.99467 173.406 10.176 172.894 10.176ZM184.805 24.64C184.058 24.64 183.493 24.448 183.109 24.064C182.746 23.68 182.565 23.1893 182.565 22.592C182.565 22.144 182.639 21.6747 182.789 21.184C182.959 20.6933 183.119 20.192 183.269 19.68C183.418 19.1467 183.493 18.6347 183.493 18.144C183.493 17.5467 183.365 17.1413 183.109 16.928C182.874 16.6933 182.575 16.576 182.213 16.576C181.551 16.576 180.879 16.8533 180.197 17.408C179.514 17.9413 178.853 18.6347 178.213 19.488C177.573 20.32 176.975 21.184 176.421 22.08C175.866 22.976 175.375 23.776 174.949 24.48C174.607 24.48 174.287 24.416 173.989 24.288C173.669 24.1813 173.423 24.0107 173.253 23.776C173.253 23.6693 173.37 23.3387 173.605 22.784C173.818 22.2293 174.074 21.5467 174.373 20.736C174.671 19.9253 174.938 19.0933 175.173 18.24C175.407 17.3867 175.525 16.608 175.525 15.904C175.653 15.7547 175.855 15.6053 176.133 15.456C176.41 15.3067 176.698 15.232 176.997 15.232C177.573 15.232 177.861 15.5093 177.861 16.064C177.861 16.4053 177.765 16.9813 177.573 17.792C177.381 18.5813 177.135 19.4133 176.837 20.288C177.413 19.4133 178.053 18.5493 178.757 17.696C179.482 16.8213 180.25 16.096 181.061 15.52C181.871 14.944 182.682 14.656 183.493 14.656C184.325 14.656 184.922 14.9547 185.285 15.552C185.669 16.1493 185.861 16.8107 185.861 17.536C185.861 18.1973 185.754 18.816 185.541 19.392C185.327 19.9467 185.103 20.4907 184.869 21.024C184.655 21.536 184.549 22.0587 184.549 22.592C184.549 23.04 184.634 23.36 184.805 23.552C184.997 23.7227 185.231 23.808 185.509 23.808C186.042 23.808 186.575 23.5627 187.109 23.072C187.642 22.56 188.154 21.92 188.645 21.152C189.157 20.384 189.605 19.6053 189.989 18.816L190.341 19.232C189.893 20.2773 189.391 21.2053 188.837 22.016C188.282 22.8267 187.674 23.4667 187.013 23.936C186.351 24.4053 185.615 24.64 184.805 24.64Z" fill="black"/>
</svg>
